<?xml version="1.0" encoding="UTF-8"?>
<!-- Generator: Adobe Illustrator 17.1.0, SVG Export Plug-In . SVG Version: 6.00 Build 0)  -->
<!DOCTYPE svg PUBLIC "-//W3C//DTD SVG 1.1//EN" "http://www.w3.org/Graphics/SVG/1.1/DTD/svg11.dtd">
<svg version="1.1" id="Livello_1" xmlns="http://www.w3.org/2000/svg" xmlns:xlink="http://www.w3.org/1999/xlink" x="0px" y="0px" viewBox="0 0 147 62.333" enable-background="new 0 0 147 62.333" xml:space="preserve">
<g>
	<path fill="#0B5C98" d="M131.918,16.647c0,2.095-1.818,3.794-4.06,3.794h-14.923v-3.153v-4.434h14.924   C130.102,12.855,131.918,14.552,131.918,16.647 M112.935,31.082h14.924c2.242,0.001,4.059,1.698,4.059,3.794   c0,2.095-1.818,3.794-4.06,3.794h-14.923v-6.306V31.082z M144.995,14.43c0-6.748-5.855-12.218-13.077-12.218c0,0-0.001,0-0.001,0   h-18.981h-11.389v10.642v4.434v3.153v10.642v1.281v6.306v8.77v1.872h30.372c7.222,0,13.077-5.47,13.077-12.218   c0-5.137-3.396-9.525-8.201-11.332C141.599,23.954,144.995,19.566,144.995,14.43"/>
	<path fill="#0B5C98" d="M32.253,16.647c0,2.095-1.818,3.794-4.06,3.794H13.271v-3.153v-4.434h14.924   C30.437,12.855,32.253,14.552,32.253,16.647 M13.271,31.082h14.924c2.242,0.001,4.059,1.698,4.059,3.794   c0,2.095-1.818,3.794-4.06,3.794H13.271v-6.306V31.082z M45.33,14.43c0-6.748-5.855-12.218-13.077-12.218c0,0-0.001,0-0.001,0   H13.271H1.881v10.642v4.434v3.153v10.642v1.281v6.306v8.77v1.872h30.372c7.222,0,13.077-5.47,13.077-12.218   c0-5.137-3.396-9.525-8.201-11.332C41.934,23.954,45.33,19.566,45.33,14.43"/>
	<path fill="#0B5C98" d="M95.17,12.854H95.16c0.006-0.144,0.011-0.289,0.011-0.435c0-5.637-4.57-10.207-10.207-10.207   c-0.146,0-0.29,0.005-0.435,0.011V2.212h-11.09h-4.641h-6.45v0.011c-0.144-0.006-0.289-0.011-0.435-0.011   c-5.637,0-10.207,4.57-10.207,10.207c0,0.146,0.005,0.29,0.011,0.435h-0.011v25.816h0.011c-0.006,0.144-0.011,0.289-0.011,0.435   c0,5.638,4.57,10.207,10.207,10.207c0.146,0,0.29-0.005,0.435-0.011v0.012h6.45h4.641h11.09V49.3   c0.144,0.006,0.289,0.011,0.435,0.011c5.637,0,10.207-4.569,10.207-10.207c0-0.146-0.005-0.29-0.011-0.435h0.011v-2.563H84.388   c-0.408,1.475-1.746,2.563-3.35,2.563h-6.27h-1.329h-1.33h-3.311h-2.958h-0.001c-1.928,0-3.491-1.563-3.491-3.491v-6.27v-6.294   v-6.27c0-1.928,1.562-3.49,3.489-3.491h2.961h4.641h7.601c1.604,0.001,2.94,1.089,3.348,2.563H95.17V12.854z"/>
	<path fill="#3D3D3C" d="M143.522,60.055c0.219-0.044,0.424-0.106,0.614-0.184c0.191-0.079,0.368-0.17,0.532-0.274   c0.165-0.104,0.315-0.214,0.45-0.329v-2.303h-2.333v0.838h1.401v1.031c-0.167,0.126-0.363,0.227-0.59,0.303   c-0.226,0.076-0.47,0.115-0.73,0.115c-0.281,0-0.535-0.05-0.761-0.149c-0.226-0.1-0.422-0.235-0.586-0.408   c-0.164-0.172-0.29-0.379-0.379-0.62c-0.088-0.241-0.133-0.502-0.133-0.784v-0.016c0-0.262,0.046-0.511,0.138-0.746   c0.091-0.235,0.216-0.441,0.376-0.616c0.159-0.175,0.347-0.315,0.563-0.42c0.217-0.104,0.45-0.157,0.701-0.157   c0.172,0,0.33,0.015,0.474,0.043c0.143,0.028,0.275,0.068,0.395,0.117c0.12,0.049,0.235,0.111,0.344,0.184   c0.11,0.073,0.216,0.155,0.321,0.243l0.611-0.728c-0.141-0.12-0.285-0.225-0.435-0.317c-0.148-0.092-0.306-0.169-0.473-0.231   c-0.167-0.062-0.349-0.111-0.544-0.145c-0.196-0.034-0.414-0.051-0.654-0.051c-0.413,0-0.793,0.076-1.14,0.227   c-0.347,0.152-0.647,0.357-0.898,0.615c-0.252,0.258-0.448,0.56-0.587,0.904c-0.14,0.344-0.21,0.707-0.21,1.088v0.016   c0,0.402,0.068,0.774,0.203,1.116c0.136,0.342,0.327,0.639,0.576,0.892c0.248,0.254,0.547,0.452,0.897,0.595   c0.349,0.144,0.738,0.215,1.166,0.215C143.072,60.121,143.302,60.1,143.522,60.055 M131.745,60.028h0.955v-3.899l3.016,3.899h0.805   v-5.481h-0.955v3.789l-2.93-3.789h-0.891V60.028z M127.016,60.028h0.955v-5.481h-0.955V60.028z M120.932,60.028h0.971v-4.589h1.738   v-0.892h-4.447v0.892h1.738V60.028z M114.988,59.997c0.24-0.073,0.445-0.18,0.616-0.321c0.17-0.141,0.304-0.313,0.399-0.517   c0.096-0.203,0.144-0.433,0.144-0.689v-0.016c0-0.224-0.039-0.422-0.114-0.591c-0.076-0.17-0.187-0.319-0.334-0.447   c-0.146-0.127-0.331-0.236-0.553-0.325c-0.222-0.089-0.477-0.17-0.765-0.243c-0.262-0.062-0.477-0.123-0.648-0.18   c-0.17-0.058-0.304-0.119-0.4-0.184c-0.097-0.065-0.164-0.138-0.201-0.219c-0.037-0.081-0.055-0.174-0.055-0.278v-0.016   c0-0.183,0.079-0.337,0.235-0.462c0.157-0.125,0.376-0.188,0.658-0.188c0.251,0,0.498,0.049,0.744,0.145   c0.245,0.096,0.494,0.236,0.744,0.419l0.517-0.728c-0.281-0.224-0.583-0.395-0.904-0.513c-0.321-0.117-0.683-0.176-1.085-0.176   c-0.271,0-0.522,0.039-0.751,0.118c-0.23,0.078-0.426,0.186-0.589,0.325c-0.163,0.138-0.292,0.305-0.384,0.501   c-0.094,0.196-0.14,0.411-0.14,0.646v0.016c0,0.25,0.04,0.464,0.121,0.642c0.081,0.178,0.199,0.327,0.353,0.45   c0.155,0.123,0.345,0.227,0.573,0.313c0.228,0.086,0.488,0.163,0.781,0.231c0.256,0.057,0.464,0.115,0.624,0.172   c0.159,0.057,0.285,0.12,0.376,0.188c0.092,0.068,0.155,0.14,0.188,0.215c0.034,0.076,0.052,0.163,0.052,0.262v0.016   c0,0.209-0.087,0.376-0.262,0.501c-0.175,0.125-0.412,0.188-0.709,0.188c-0.345,0-0.653-0.062-0.924-0.184   c-0.272-0.123-0.54-0.298-0.807-0.528l-0.579,0.689c0.329,0.298,0.686,0.518,1.073,0.662c0.386,0.143,0.791,0.215,1.214,0.215   C114.485,60.106,114.749,60.069,114.988,59.997 M103.315,60.028h0.987l0.563-1.323h2.592l0.556,1.323h1.018l-2.412-5.52h-0.892   L103.315,60.028z M105.217,57.851l0.94-2.192l0.947,2.192H105.217z M98.957,60.055c0.212-0.044,0.406-0.109,0.583-0.195   c0.178-0.086,0.344-0.188,0.498-0.306c0.154-0.117,0.301-0.252,0.442-0.403l-0.618-0.626c-0.235,0.219-0.473,0.393-0.713,0.521   c-0.24,0.127-0.528,0.191-0.861,0.191c-0.261,0-0.502-0.051-0.725-0.153c-0.222-0.102-0.414-0.241-0.575-0.419   c-0.162-0.177-0.287-0.384-0.376-0.622c-0.089-0.237-0.133-0.489-0.133-0.755v-0.016c0-0.266,0.044-0.517,0.133-0.752   c0.089-0.235,0.214-0.439,0.376-0.614c0.161-0.175,0.353-0.313,0.575-0.415c0.222-0.102,0.464-0.153,0.725-0.153   c0.313,0,0.592,0.063,0.837,0.188c0.245,0.125,0.478,0.29,0.697,0.494l0.618-0.713c-0.13-0.125-0.268-0.24-0.415-0.344   c-0.146-0.104-0.305-0.195-0.477-0.27c-0.172-0.076-0.361-0.135-0.568-0.176c-0.207-0.042-0.435-0.063-0.685-0.063   c-0.418,0-0.799,0.075-1.143,0.223c-0.344,0.149-0.643,0.353-0.895,0.611c-0.252,0.258-0.447,0.559-0.587,0.9   c-0.14,0.342-0.209,0.709-0.209,1.1v0.016c0,0.391,0.071,0.759,0.213,1.104c0.142,0.344,0.338,0.643,0.587,0.897   c0.25,0.253,0.544,0.453,0.883,0.599c0.339,0.146,0.709,0.219,1.111,0.219C98.512,60.121,98.745,60.1,98.957,60.055 M85.127,60.028   h4.095v-0.869h-3.14v-1.465h2.749v-0.869h-2.749v-1.41h3.101v-0.869h-4.057V60.028z M80.398,60.028h0.955v-5.481h-0.955V60.028z    M71.918,60.028h2.044c0.428,0,0.82-0.071,1.178-0.212c0.357-0.141,0.665-0.334,0.923-0.58c0.259-0.245,0.458-0.535,0.599-0.869   c0.141-0.334,0.212-0.694,0.212-1.081v-0.016c0-0.386-0.071-0.745-0.212-1.077c-0.141-0.332-0.34-0.62-0.599-0.865   c-0.258-0.245-0.566-0.437-0.923-0.576c-0.358-0.138-0.751-0.207-1.178-0.207h-2.044V60.028z M72.874,59.159v-3.743h1.081   c0.287,0,0.548,0.047,0.783,0.142c0.235,0.094,0.435,0.224,0.599,0.389c0.165,0.165,0.292,0.363,0.384,0.593   c0.092,0.231,0.137,0.48,0.137,0.747v0.016c0,0.267-0.045,0.515-0.137,0.743c-0.092,0.228-0.219,0.424-0.384,0.59   c-0.164,0.165-0.364,0.294-0.599,0.385c-0.235,0.092-0.496,0.138-0.783,0.138H72.874z M62.862,60.028h0.971v-4.589h1.738v-0.892   h-4.448v0.892h1.738V60.028z M53.027,60.028h0.955v-3.899l3.016,3.899h0.805v-5.481h-0.955v3.789l-2.93-3.789h-0.891V60.028z    M45.479,60.028h4.095v-0.869h-3.14v-1.465h2.749v-0.869h-2.749v-1.41h3.101v-0.869h-4.056V60.028z M37.516,60.028h0.955v-1.911   h1.193h0.016l1.351,1.911h1.135l-1.479-2.075c0.193-0.052,0.369-0.127,0.528-0.224c0.159-0.096,0.296-0.214,0.412-0.352   c0.115-0.138,0.205-0.298,0.27-0.478c0.065-0.18,0.098-0.382,0.098-0.607v-0.016c0-0.24-0.039-0.459-0.117-0.658   c-0.078-0.198-0.191-0.373-0.336-0.525c-0.178-0.172-0.399-0.306-0.666-0.403c-0.266-0.097-0.572-0.145-0.916-0.145h-2.443V60.028z    M38.471,57.263v-1.848h1.406c0.361,0,0.641,0.077,0.841,0.232c0.199,0.155,0.298,0.382,0.298,0.68v0.016   c0,0.283-0.102,0.507-0.306,0.673c-0.204,0.165-0.479,0.247-0.824,0.247H38.471z M29.968,60.028h4.095v-0.869h-3.14v-1.465h2.748   v-0.869h-2.748v-1.41h3.101v-0.869h-4.056V60.028z M22.529,60.028h0.955v-2.231h2.764v-0.869h-2.764v-1.511h3.116v-0.869h-4.072   V60.028z M15.091,60.028h0.955v-2.231h2.764v-0.869h-2.764v-1.511h3.116v-0.869h-4.072V60.028z M10.361,60.028h0.955v-5.481h-0.955   V60.028z M1.881,60.028h2.044c0.428,0,0.821-0.071,1.178-0.212c0.358-0.141,0.666-0.334,0.924-0.58   c0.258-0.245,0.458-0.535,0.599-0.869c0.14-0.334,0.211-0.694,0.211-1.081v-0.016c0-0.386-0.071-0.745-0.211-1.077   c-0.141-0.332-0.341-0.62-0.599-0.865c-0.258-0.245-0.566-0.437-0.924-0.576c-0.357-0.138-0.751-0.207-1.178-0.207H1.881V60.028z    M2.837,59.159v-3.743h1.081c0.287,0,0.548,0.047,0.783,0.142c0.235,0.094,0.435,0.224,0.599,0.389   c0.165,0.165,0.292,0.363,0.384,0.593c0.092,0.231,0.137,0.48,0.137,0.747v0.016c0,0.267-0.045,0.515-0.137,0.743   c-0.092,0.228-0.219,0.424-0.384,0.59c-0.164,0.165-0.364,0.294-0.599,0.385c-0.235,0.092-0.496,0.138-0.783,0.138H2.837z"/>
</g>
</svg>